# xmcd CD database file
#
# Track frame offsets:
#	150
#	18230
#	33240
#	48265
#	64788
#	79625
#	97208
#	113552
#	130026
#	144798
#	161657
#	175600
#	191694
#	208356
#	221331
#	237571
#	253441
#	270540
#	288117
#	308925
#	325727
#
# Disc length: 4601 seconds
#
# Revision: 15
# Processed by: cddbd v1.5.2PL0 Copyright (c) Steve Scherf et al.
# Submitted via: CDex 1.79
#
DISCID=2a11f715,3911f715
DTITLE=Bravo - Bravo Hits 32 - CD2
DYEAR=2001
DGENRE=Pop
TTITLE0=Gigi D'Agostino and Albertino - Super
TTITLE1=DJ Bobo and Irene Cara - What a feeling
TTITLE2=Jeanette - Will you be there
TTITLE3=Christian - Es ist geil ein Arschloch zu sein
TTITLE4=Walter - Ich geh' nicht ohne Dich
TTITLE5=Sven Schumacher - Hey little girl
TTITLE6=Ortiga - Ilumbarada
TTITLE7=Natalie - Fight to win
TTITLE8=T Seven - Hey Mr. President
TTITLE9=Pfaffendorf - Rhythm and sex
TTITLE10=Public Domain - Operation blade
TTITLE11=Brooklyn Bounce - Born to bounce (Music is my destiny)
TTITLE12=R.B.A. - No alternative
TTITLE13=Elektrochemie LK - When I rock
TTITLE14=Cosmic Gate - Exploration of space
TTITLE15=Fragma feat. Maria - Everytime you need me
TTITLE16=Malaria vs. Chicks.on Speed - Kaltes, klares Wasser
TTITLE17=Storm - Stormanimal
TTITLE18=Project Pitchfork - Exitence
TTITLE19=Papa Roach - Broken home
TTITLE20=OPM - Heaven is a halfpipe
EXTD=YEAR: 2001
EXTT0=
EXTT1=
EXTT2=
EXTT3=
EXTT4=
EXTT5=
EXTT6=
EXTT7=
EXTT8=
EXTT9=
EXTT10=
EXTT11=
EXTT12=
EXTT13=
EXTT14=
EXTT15=
EXTT16=
EXTT17=
EXTT18=
EXTT19=
EXTT20=
PLAYORDER=
